{"title":"Joan of Arc (1999) - 720p x265 HEVC - ENG/ITA (ENG/ITA SUBS) [BR","uid":13660647,"size":1822748701,"categoryP":"video","categoryS":"hd___movies","magnet":"?xt=urn:btih:c75a2cee661e06ed0615fc191ea6306a4cfa93bf&amp;dn=Joan+of+Arc+%281999%29+-+720p+x265+HEVC+-+ENG%2FITA+%28ENG%2FITA+SUBS%29+%5BBR&amp;tr=udp%3A%2F%2Ftracker.leechers-paradise.org%3A6969&amp;tr=udp%3A%2F%2Fzer0day.ch%3A1337&amp;tr=udp%3A%2F%2Fopen.demonii.com%3A1337&amp;tr=udp%3A%2F%2Ftracker.coppersurfer.tk%3A6969&amp;tr=udp%3A%2F%2Fexodus.desync.com%3A6969","seeders":1,"leechers":0,"uploader":"BRSHNKV","files":1,"time":1456240811,"description":"A young girl receives a vision that drives her to rid France of its oppressors.\r\n\r\n\r\nTechnical:\r\n\r\n\r\nFormat : MPEG-4\r\nFormat profile : Base Media / Version 2\r\nCodec ID : mp42\r\nFile size : 1.70 GiB\r\nDuration : 2h 38mn\r\nOverall bit rate mode : Variable\r\nOverall bit rate : 1 538 Kbps\r\nEncoded date : UTC 2016-02-21 22:17:43\r\nTagged date : UTC 2016-02-21 22:17:43\r\nWriting application : HandBrake 0.10.2 2015061100\r\n\r\nVideo\r\nID : 1\r\nFormat : HEVC\r\nFormat/Info : High Efficiency Video Coding\r\nFormat profile :   @Main\r\nCodec ID : hev1\r\nCodec ID/Info : High Efficiency Video Coding\r\nDuration : 2h 38mn\r\nBit rate : 1 201 Kbps\r\nWidth : 1 920 pixels\r\nHeight : 800 pixels\r\nDisplay aspect ratio : 2.40:1\r\nFrame rate mode : Variable\r\nFrame rate : 23.976 fps\r\nMinimum frame rate : 23.974 fps\r\nMaximum frame rate : 23.981 fps\r\nColor space : YUV\r\nChroma subsampling : 4:2:0\r\nBit depth : 8 bits\r\nBits/(Pixel*Frame) : 0.033\r\nStream size : 1.33 GiB (78%)\r\nWriting library : x265 1.5:[Mac OS X][clang 6.1.0][64 bit]\r\nEncoded date : UTC 2016-02-21 22:17:43\r\nTagged date : UTC 2016-02-21 22:17:43\r\nColor range : Limited\r\nColor primaries : BT.709\r\nTransfer characteristics : BT.709\r\nMatrix coefficients : BT.709\r\n\r\nAudio #1\r\nID : 2\r\nFormat : AAC\r\nFormat/Info : Advanced Audio Codec\r\nFormat profile : LC\r\nCodec ID : 40\r\nDuration : 2h 38mn\r\nBit rate mode : Variable\r\nBit rate : 164 Kbps\r\nChannel(s) : 2 channels\r\nChannel positions : Front: L R\r\nSampling rate : 48.0 KHz\r\nCompression mode : Lossy\r\nStream size : 185 MiB (11%)\r\nTitle : Stereo / Stereo\r\nLanguage : English\r\nEncoded date : UTC 2016-02-21 22:17:43\r\nTagged date : UTC 2016-02-21 22:17:43\r\n\r\nAudio #2\r\nID : 3\r\nFormat : AAC\r\nFormat/Info : Advanced Audio Codec\r\nFormat profile : LC\r\nCodec ID : 40\r\nDuration : 2h 38mn\r\nBit rate mode : Variable\r\nBit rate : 164 Kbps\r\nChannel(s) : 2 channels\r\nChannel positions : Front: L R\r\nSampling rate : 48.0 KHz\r\nCompression mode : Lossy\r\nStream size : 185 MiB (11%)\r\nTitle : Stereo / Stereo\r\nLanguage : Italian\r\nEncoded date : UTC 2016-02-21 22:17:43\r\nTagged date : UTC 2016-02-21 22:17:43\r\n\r\nText #1\r\nID : 4\r\nFormat : Timed Text\r\nMuxing mode : sbtl\r\nCodec ID : tx3g\r\nDuration : 2h 31mn\r\nBit rate mode : Variable\r\nBit rate : 48 bps\r\nStream size : 53.3 KiB (0%)\r\nLanguage : English\r\nEncoded date : UTC 2016-02-21 22:17:43\r\nTagged date : UTC 2016-02-21 22:17:43\r\n\r\nText #2\r\nID : 5\r\nFormat : Timed Text\r\nMuxing mode : sbtl\r\nCodec ID : tx3g\r\nDuration : 2h 32mn\r\nBit rate mode : Variable\r\nBit rate : 47 bps\r\nStream size : 52.7 KiB (0%)\r\nLanguage : Italian\r\nEncoded date : UTC 2016-02-21 22:17:43\r\nTagged date : UTC 2016-02-21 22:17:43\r\n\r\nMenu\r\nID : 6\r\nCodec ID : text\r\nDuration : 2h 38mn\r\nLanguage : English\r\nEncoded date : UTC 2016-02-21 22:17:43\r\nTagged date : UTC 2016-02-21 22:17:43\r\nBit rate mode : CBR\r\n00:00:00.000 : 00:00:00.000\r\n00:11:00.994 : 00:10:59.075\r\n00:21:11.645 : 00:21:01.552\r\n00:32:30.949 : 00:32:20.856\r\n00:38:45.406 : 00:38:35.271\r\n00:47:04.196 : 00:46:58.649\r\n00:56:54.119 : 00:56:49.156\r\n01:03:13.707 : 01:03:12.247\r\n01:12:27.677 : 01:12:24.549\r\n01:23:18.785 : 01:23:08.692\r\n01:37:16.622 : 01:37:11.784\r\n01:46:47.026 : 01:46:42.479\r\n01:56:56.676 : 01:56:54.007\r\n02:03:27.483 : 02:03:27.358\r\n02:12:30.609 : 02:12:21.725\r\n02:21:11.630 : 02:21:01.495","torrent":{"xt":"urn:btih:c75a2cee661e06ed0615fc191ea6306a4cfa93bf","amp;dn":"Joan+of+Arc+%281999%29+-+720p+x265+HEVC+-+ENG%2FITA+%28ENG%2FITA+SUBS%29+%5BBR","amp;tr":["udp%3A%2F%2Ftracker.leechers-paradise.org%3A6969","udp%3A%2F%2Fzer0day.ch%3A1337","udp%3A%2F%2Fopen.demonii.com%3A1337","udp%3A%2F%2Ftracker.coppersurfer.tk%3A6969","udp%3A%2F%2Fexodus.desync.com%3A6969"],"infoHash":"c75a2cee661e06ed0615fc191ea6306a4cfa93bf","infoHashBuffer":{"type":"Buffer","data":[199,90,44,238,102,30,6,237,6,21,252,25,30,166,48,106,76,250,147,191]},"announce":[],"urlList":[]}}